<svg width="30" height="30" version="1.1" viewBox="0 0 30 30" xmlns="http://www.w3.org/2000/svg"><g transform="translate(-6.69 -19.3)" fill="currentColor"><path d="m6.69 29.4c0.191-0.0637 6.69 0 6.69 0l8.13-8.13v26.2l-8.17-8.17-6.63-0.0451z"/><path transform="matrix(.265 0 0 .265 6.69 19.3)" d="m68.1 29.3v54.9a31.5 31.5 0 0 0 16-27.4 31.5 31.5 0 0 0-16-27.4z"/><path transform="matrix(.265 0 0 .265 6.69 19.3)" d="m68.1 1.84v11.7c18 5.97 31 22.9 31 43-1e-6 20.1-13 37-31 43v11.7c24.3-6.36 42.3-28.5 42.3-54.8s-18-48.4-42.3-54.8z" color="#000000" color-rendering="auto" dominant-baseline="auto" image-rendering="auto" shape-rendering="auto" solid-color="#000000" stop-color="#000000" style="font-feature-settings:normal;font-variant-alternates:normal;font-variant-caps:normal;font-variant-east-asian:normal;font-variant-ligatures:normal;font-variant-numeric:normal;font-variant-position:normal;font-variation-settings:normal;inline-size:0;isolation:auto;mix-blend-mode:normal;shape-margin:0;shape-padding:0;text-decoration-color:#000000;text-decoration-line:none;text-decoration-style:solid;text-indent:0;text-orientation:mixed;text-transform:none;white-space:normal"/></g></svg>
